<?xml version="1.0" encoding="UTF-8" standalone="no"?>
<!-- Created with Inkscape (http://www.inkscape.org/) -->

<svg
   version="1.1"
   id="svg4725"
   xml:space="preserve"
   width="682.66669"
   height="682.66669"
   viewBox="0 0 682.66669 682.66669"
   xmlns="http://www.w3.org/2000/svg"
   xmlns:svg="http://www.w3.org/2000/svg"><defs
     id="defs4729"><clipPath
       clipPathUnits="userSpaceOnUse"
       id="clipPath4751"><path
         d="M 0,512 H 512 V 0 H 0 Z"
         id="path4749" /></clipPath></defs><g
     id="g4731"
     transform="matrix(1.3333333,0,0,-1.3333333,0,682.66667)"><g
       id="g4733"
       transform="translate(256,440.2861)"><path
         d="M 0,0 V 28.838"
         style="fill:none;stroke:#000000;stroke-width:15;stroke-linecap:round;stroke-linejoin:round;stroke-miterlimit:10;stroke-dasharray:none;stroke-opacity:1"
         id="path4735" /></g><g
       id="g4737"
       transform="translate(256,293.3809)"><path
         d="M 0,0 V 59.619"
         style="fill:none;stroke:#000000;stroke-width:15;stroke-linecap:round;stroke-linejoin:round;stroke-miterlimit:10;stroke-dasharray:none;stroke-opacity:1"
         id="path4739" /></g><g
       id="g4741"
       transform="translate(256,42.876)"><path
         d="M 0,0 V 60.818"
         style="fill:none;stroke:#000000;stroke-width:15;stroke-linecap:round;stroke-linejoin:round;stroke-miterlimit:10;stroke-dasharray:none;stroke-opacity:1"
         id="path4743" /></g><g
       id="g4745"><g
         id="g4747"
         clip-path="url(#clipPath4751)"><g
           id="g4753"
           transform="translate(259.6836,359.1904)"><path
             d="m 0,0 c -21.37,-21.369 -53.075,-24.312 -70.815,-6.571 -17.74,17.74 -14.798,49.445 6.572,70.814 21.369,21.37 53.074,24.313 70.814,6.572 C 24.312,53.075 21.369,21.37 0,0 Z"
             style="fill:none;stroke:#000000;stroke-width:15;stroke-linecap:round;stroke-linejoin:round;stroke-miterlimit:10;stroke-dasharray:none;stroke-opacity:1"
             id="path4755" /></g><g
           id="g4757"
           transform="translate(238.4033,362.0195)"><path
             d="M 0,0 C -16.275,-16.274 -38.452,-20.483 -49.535,-9.4 -60.617,1.683 -56.408,23.859 -40.134,40.134 -23.859,56.408 -1.682,60.617 9.4,49.535 20.483,38.452 16.274,16.275 0,0 Z"
             style="fill:none;stroke:#000000;stroke-width:15;stroke-linecap:round;stroke-linejoin:round;stroke-miterlimit:10;stroke-dasharray:none;stroke-opacity:1"
             id="path4759" /></g><g
           id="g4761"
           transform="translate(411.999,175.5156)"><path
             d="m 0,0 c 0,-30.222 -20.338,-54.721 -45.427,-54.721 -25.088,0 -45.427,24.499 -45.427,54.721 0,30.221 20.339,54.72 45.427,54.72 C -20.338,54.72 0,30.221 0,0 Z"
             style="fill:none;stroke:#000000;stroke-width:15;stroke-linecap:round;stroke-linejoin:round;stroke-miterlimit:10;stroke-dasharray:none;stroke-opacity:1"
             id="path4763" /></g><g
           id="g4765"
           transform="translate(394.9512,162.4687)"><path
             d="m 0,0 c 0,-23.016 -12.705,-41.674 -28.379,-41.674 -15.673,0 -28.379,18.658 -28.379,41.674 0,23.016 12.706,41.673 28.379,41.673 C -12.705,41.673 0,23.016 0,0 Z"
             style="fill:none;stroke:#000000;stroke-width:15;stroke-linecap:round;stroke-linejoin:round;stroke-miterlimit:10;stroke-dasharray:none;stroke-opacity:1"
             id="path4767" /></g><g
           id="g4769"
           transform="translate(340.4365,403.54)"><path
             d="M 0,0 12.805,-12.805"
             style="fill:none;stroke:#000000;stroke-width:15;stroke-linecap:round;stroke-linejoin:round;stroke-miterlimit:10;stroke-dasharray:none;stroke-opacity:1"
             id="path4771" /></g><g
           id="g4773"
           transform="translate(291.2539,127.1973)"><path
             d="M 0,0 12.805,-12.805"
             style="fill:none;stroke:#000000;stroke-width:15;stroke-linecap:round;stroke-linejoin:round;stroke-miterlimit:10;stroke-dasharray:none;stroke-opacity:1"
             id="path4775" /></g><g
           id="g4777"
           transform="translate(345.5869,303.0303)"><path
             d="M 0,0 12.806,-12.806"
             style="fill:none;stroke:#000000;stroke-width:15;stroke-linecap:round;stroke-linejoin:round;stroke-miterlimit:10;stroke-dasharray:none;stroke-opacity:1"
             id="path4779" /></g><g
           id="g4781"
           transform="translate(301.0332,250.5098)"><path
             d="M 0,0 12.806,-12.806"
             style="fill:none;stroke:#000000;stroke-width:15;stroke-linecap:round;stroke-linejoin:round;stroke-miterlimit:10;stroke-dasharray:none;stroke-opacity:1"
             id="path4783" /></g><g
           id="g4785"
           transform="translate(398.3408,325.3916)"><path
             d="M 0,0 12.805,-12.806"
             style="fill:none;stroke:#000000;stroke-width:15;stroke-linecap:round;stroke-linejoin:round;stroke-miterlimit:10;stroke-dasharray:none;stroke-opacity:1"
             id="path4787" /></g><g
           id="g4789"
           transform="translate(165.4702,324.3066)"><path
             d="M 0,0 12.805,-12.806"
             style="fill:none;stroke:#000000;stroke-width:15;stroke-linecap:round;stroke-linejoin:round;stroke-miterlimit:10;stroke-dasharray:none;stroke-opacity:1"
             id="path4791" /></g><g
           id="g4793"
           transform="translate(97.5156,335.709)"><path
             d="M 0,0 12.805,-12.805"
             style="fill:none;stroke:#000000;stroke-width:15;stroke-linecap:round;stroke-linejoin:round;stroke-miterlimit:10;stroke-dasharray:none;stroke-opacity:1"
             id="path4795" /></g><g
           id="g4797"
           transform="translate(203.3755,84.7119)"><path
             d="M 0,0 12.805,-12.806"
             style="fill:none;stroke:#000000;stroke-width:15;stroke-linecap:round;stroke-linejoin:round;stroke-miterlimit:10;stroke-dasharray:none;stroke-opacity:1"
             id="path4799" /></g><g
           id="g4801"
           transform="translate(142.4995,226.834)"><path
             d="M 0,0 11.21,-11.211"
             style="fill:none;stroke:#000000;stroke-width:15;stroke-linecap:round;stroke-linejoin:round;stroke-miterlimit:10;stroke-dasharray:none;stroke-opacity:1"
             id="path4803" /></g><g
           id="g4805"
           transform="translate(317.5488,373.8223)"><path
             d="M 0,0 -12.806,-12.806"
             style="fill:none;stroke:#000000;stroke-width:15;stroke-linecap:round;stroke-linejoin:round;stroke-miterlimit:10;stroke-dasharray:none;stroke-opacity:1"
             id="path4807" /></g><g
           id="g4809"
           transform="translate(146.5879,292.4365)"><path
             d="M 0,0 -12.806,-12.806"
             style="fill:none;stroke:#000000;stroke-width:15;stroke-linecap:round;stroke-linejoin:round;stroke-miterlimit:10;stroke-dasharray:none;stroke-opacity:1"
             id="path4811" /></g><g
           id="g4813"
           transform="translate(149.4751,150.543)"><path
             d="M 0,0 -12.805,-12.805"
             style="fill:none;stroke:#000000;stroke-width:15;stroke-linecap:round;stroke-linejoin:round;stroke-miterlimit:10;stroke-dasharray:none;stroke-opacity:1"
             id="path4815" /></g><g
           id="g4817"
           transform="translate(219.3164,307.1855)"><path
             d="M 0,0 -12.805,-12.805"
             style="fill:none;stroke:#000000;stroke-width:15;stroke-linecap:round;stroke-linejoin:round;stroke-miterlimit:10;stroke-dasharray:none;stroke-opacity:1"
             id="path4819" /></g><g
           id="g4821"
           transform="translate(112.0571,229.877)"><path
             d="M 0,0 -12.806,-12.806"
             style="fill:none;stroke:#000000;stroke-width:15;stroke-linecap:round;stroke-linejoin:round;stroke-miterlimit:10;stroke-dasharray:none;stroke-opacity:1"
             id="path4823" /></g><g
           id="g4825"
           transform="translate(426.7598,273.7295)"><path
             d="M 0,0 -12.805,-12.806"
             style="fill:none;stroke:#000000;stroke-width:15;stroke-linecap:round;stroke-linejoin:round;stroke-miterlimit:10;stroke-dasharray:none;stroke-opacity:1"
             id="path4827" /></g><g
           id="g4829"
           transform="translate(320.2412,96.1143)"><path
             d="M 0,0 -12.806,-12.806"
             style="fill:none;stroke:#000000;stroke-width:15;stroke-linecap:round;stroke-linejoin:round;stroke-miterlimit:10;stroke-dasharray:none;stroke-opacity:1"
             id="path4831" /></g><g
           id="g4833"
           transform="translate(285.418,299.4131)"><path
             d="m 0,0 36.071,36.071 c 2.104,2.104 5.063,3.114 8.012,2.735 l 25.722,-3.3 c 3.955,-0.507 5.603,-5.337 2.784,-8.156 L 25.592,-19.646"
             style="fill:none;stroke:#000000;stroke-width:15;stroke-linecap:round;stroke-linejoin:round;stroke-miterlimit:10;stroke-dasharray:none;stroke-opacity:1"
             id="path4835" /></g><g
           id="g4837"
           transform="translate(183.5425,247.3232)"><path
             d="m 0,0 c -24.705,-16.043 -38.123,-44.872 -34.342,-74.22 l 3.723,-28.905 c 1.46,-11.332 10.136,-20.389 21.394,-22.333 l 85.566,-14.78 c 17.84,-3.081 33.303,12.532 30.048,30.341 l -15.566,85.172 32.356,40.697 c 5.399,6.791 3.731,16.762 -3.585,21.426 L 98.849,50.624 c -4.7,2.997 -10.696,3.061 -15.458,0.162 L 25.602,15.626"
             style="fill:none;stroke:#000000;stroke-width:15;stroke-linecap:round;stroke-linejoin:round;stroke-miterlimit:10;stroke-dasharray:none;stroke-opacity:1"
             id="path4839" /></g><g
           id="g4841"
           transform="translate(181.2544,177.0312)"><path
             d="M 0,0 23.056,-23.055"
             style="fill:none;stroke:#000000;stroke-width:15;stroke-linecap:round;stroke-linejoin:round;stroke-miterlimit:10;stroke-dasharray:none;stroke-opacity:1"
             id="path4843" /></g><g
           id="g4845"
           transform="translate(187.9585,206.7988)"><path
             d="M 0,0 23.055,-23.056"
             style="fill:none;stroke:#000000;stroke-width:15;stroke-linecap:round;stroke-linejoin:round;stroke-miterlimit:10;stroke-dasharray:none;stroke-opacity:1"
             id="path4847" /></g><g
           id="g4849"
           transform="translate(94.6963,295.6611)"><path
             d="M 0,0 -12.805,-12.806"
             style="fill:none;stroke:#000000;stroke-width:15;stroke-linecap:round;stroke-linejoin:round;stroke-miterlimit:10;stroke-dasharray:none;stroke-opacity:1"
             id="path4851" /></g><g
           id="g4853"
           transform="translate(140.4282,384.0918)"><path
             d="M 0,0 -12.806,-12.805"
             style="fill:none;stroke:#000000;stroke-width:15;stroke-linecap:round;stroke-linejoin:round;stroke-miterlimit:10;stroke-dasharray:none;stroke-opacity:1"
             id="path4855" /></g><g
           id="g4857"
           transform="translate(104.6357,58.9248)"><path
             d="m 0,0 c 41.915,-32.241 94.396,-51.425 151.364,-51.425 137.242,0 248.5,111.257 248.5,248.5 0,137.243 -111.258,248.5 -248.5,248.5 -137.242,0 -248.5,-111.257 -248.5,-248.5 0,-68.381 27.625,-130.305 72.317,-175.237"
             style="fill:none;stroke:#000000;stroke-width:15;stroke-linecap:round;stroke-linejoin:round;stroke-miterlimit:10;stroke-dasharray:none;stroke-opacity:1"
             id="path4859" /></g><g
           id="g4861"
           transform="translate(472.4102,273.6201)"><path
             d="m 0,0 c -8.97,111.673 -102.429,199.504 -216.41,199.504 -119.914,0 -217.124,-97.21 -217.124,-217.124 0,-119.914 97.21,-217.124 217.124,-217.124 114.745,0 208.688,89.014 216.575,201.753"
             style="fill:none;stroke:#000000;stroke-width:15;stroke-linecap:round;stroke-linejoin:round;stroke-miterlimit:10;stroke-dasharray:none;stroke-opacity:1"
             id="path4863" /></g></g></g></g></svg>
