<?xml version="1.0" encoding="UTF-8" standalone="no"?>
<!-- Created with Inkscape (http://www.inkscape.org/) -->

<svg
   version="1.1"
   id="svg1845"
   xml:space="preserve"
   width="682.66669"
   height="682.66669"
   viewBox="0 0 682.66669 682.66669"
   xmlns="http://www.w3.org/2000/svg"
   xmlns:svg="http://www.w3.org/2000/svg"><defs
     id="defs1849"><clipPath
       clipPathUnits="userSpaceOnUse"
       id="clipPath1859"><path
         d="M 0,512 H 512 V 0 H 0 Z"
         id="path1857" /></clipPath></defs><g
     id="g1851"
     transform="matrix(1.3333333,0,0,-1.3333333,0,682.66667)"><g
       id="g1853"><g
         id="g1855"
         clip-path="url(#clipPath1859)"><g
           id="g1861"
           transform="translate(191.7778,496.1743)"><path
             d="m 0,0 c 20.486,5.464 42.014,8.377 64.222,8.377 137.271,0 248.551,-111.28 248.551,-248.551 0,-137.271 -111.28,-248.552 -248.551,-248.552 -137.271,0 -248.551,111.281 -248.551,248.552 0,103.006 62.66,191.377 151.942,229.077"
             style="fill:none;stroke:#000000;stroke-width:15;stroke-linecap:round;stroke-linejoin:round;stroke-miterlimit:10;stroke-dasharray:none;stroke-opacity:1"
             id="path1863" /></g><g
           id="g1865"
           transform="translate(135.8877,285.0352)"><path
             d="m 0,0 c 0,-16.47 -13.352,-29.821 -29.821,-29.821 -16.47,0 -29.822,13.351 -29.822,29.821 0,16.47 13.352,29.821 29.822,29.821 C -13.352,29.821 0,16.47 0,0 Z"
             style="fill:none;stroke:#000000;stroke-width:15;stroke-linecap:round;stroke-linejoin:round;stroke-miterlimit:10;stroke-dasharray:none;stroke-opacity:1"
             id="path1867" /></g><g
           id="g1869"
           transform="translate(237.6938,285.0352)"><path
             d="m 0,0 c 0,-9.128 -7.4,-16.528 -16.528,-16.528 -9.128,0 -16.528,7.4 -16.528,16.528 0,9.128 7.4,16.528 16.528,16.528 C -7.4,16.528 0,9.128 0,0 Z"
             style="fill:none;stroke:#000000;stroke-width:15;stroke-linecap:round;stroke-linejoin:round;stroke-miterlimit:10;stroke-dasharray:none;stroke-opacity:1"
             id="path1871" /></g><g
           id="g1873"
           transform="translate(351.8228,285.0352)"><path
             d="m 0,0 c 0,-4.142 -3.358,-7.5 -7.5,-7.5 -4.142,0 -7.5,3.358 -7.5,7.5 0,4.142 3.358,7.5 7.5,7.5 C -3.358,7.5 0,4.142 0,0"
             style="fill:#000000;fill-opacity:1;fill-rule:nonzero;stroke:none"
             id="path1875" /></g><g
           id="g1877"
           transform="translate(410.1987,181.1509)"><path
             d="m 0,0 c 0,-4.142 -3.358,-7.5 -7.5,-7.5 -4.142,0 -7.5,3.358 -7.5,7.5 0,4.142 3.358,7.5 7.5,7.5 C -3.358,7.5 0,4.142 0,0"
             style="fill:#000000;fill-opacity:1;fill-rule:nonzero;stroke:none"
             id="path1879" /></g><g
           id="g1881"
           transform="translate(221.1655,103.3403)"><path
             d="m 0,0 c 0,-4.142 -3.358,-7.5 -7.5,-7.5 -4.142,0 -7.5,3.358 -7.5,7.5 0,4.142 3.358,7.5 7.5,7.5 C -3.358,7.5 0,4.142 0,0"
             style="fill:#000000;fill-opacity:1;fill-rule:nonzero;stroke:none"
             id="path1883" /></g><g
           id="g1885"
           transform="translate(212.1377,408.6597)"><path
             d="m 0,0 c 0,-4.142 -3.358,-7.5 -7.5,-7.5 -4.142,0 -7.5,3.358 -7.5,7.5 0,4.142 3.358,7.5 7.5,7.5 C -3.358,7.5 0,4.142 0,0"
             style="fill:#000000;fill-opacity:1;fill-rule:nonzero;stroke:none"
             id="path1887" /></g><g
           id="g1889"
           transform="translate(228.6655,156.3818)"><path
             d="m 0,0 c 0,-4.142 -3.358,-7.5 -7.5,-7.5 -4.142,0 -7.5,3.358 -7.5,7.5 0,4.142 3.358,7.5 7.5,7.5 C -3.358,7.5 0,4.142 0,0"
             style="fill:#000000;fill-opacity:1;fill-rule:nonzero;stroke:none"
             id="path1891" /></g><g
           id="g1893"
           transform="translate(344.3228,240.8228)"><path
             d="m 0,0 c 0,-4.142 -3.358,-7.5 -7.5,-7.5 -4.142,0 -7.5,3.358 -7.5,7.5 0,4.142 3.358,7.5 7.5,7.5 C -3.358,7.5 0,4.142 0,0"
             style="fill:#000000;fill-opacity:1;fill-rule:nonzero;stroke:none"
             id="path1895" /></g><g
           id="g1897"
           transform="translate(307.271,173.6509)"><path
             d="m 0,0 c 0,-4.142 -3.358,-7.5 -7.5,-7.5 -4.142,0 -7.5,3.358 -7.5,7.5 0,4.142 3.358,7.5 7.5,7.5 C -3.358,7.5 0,4.142 0,0"
             style="fill:#000000;fill-opacity:1;fill-rule:nonzero;stroke:none"
             id="path1899" /></g><g
           id="g1901"
           transform="translate(245.1938,354.3838)"><path
             d="m 0,0 c 0,-4.142 -3.358,-7.5 -7.5,-7.5 -4.142,0 -7.5,3.358 -7.5,7.5 0,4.142 3.358,7.5 7.5,7.5 C -3.358,7.5 0,4.142 0,0"
             style="fill:#000000;fill-opacity:1;fill-rule:nonzero;stroke:none"
             id="path1903" /></g><g
           id="g1905"
           transform="translate(168.2021,225.6948)"><path
             d="m 0,0 c 0,-4.142 -3.358,-7.5 -7.5,-7.5 -4.142,0 -7.5,3.358 -7.5,7.5 0,4.142 3.358,7.5 7.5,7.5 C -3.358,7.5 0,4.142 0,0"
             style="fill:#000000;fill-opacity:1;fill-rule:nonzero;stroke:none"
             id="path1907" /></g><g
           id="g1909"
           transform="translate(307.0015,343.894)"><path
             d="m 0,0 c 0,-4.143 -3.358,-7.5 -7.5,-7.5 -4.142,0 -7.5,3.357 -7.5,7.5 0,4.142 3.358,7.5 7.5,7.5 C -3.358,7.5 0,4.142 0,0"
             style="fill:#000000;fill-opacity:1;fill-rule:nonzero;stroke:none"
             id="path1911" /></g><g
           id="g1913"
           transform="translate(410.1987,340.3325)"><path
             d="m 0,0 c 0,-4.142 -3.358,-7.5 -7.5,-7.5 -4.142,0 -7.5,3.358 -7.5,7.5 0,4.142 3.358,7.5 7.5,7.5 C -3.358,7.5 0,4.142 0,0"
             style="fill:#000000;fill-opacity:1;fill-rule:nonzero;stroke:none"
             id="path1915" /></g><g
           id="g1917"
           transform="translate(269.9497,218.1948)"><path
             d="m 0,0 c 0,-4.142 -3.358,-7.5 -7.5,-7.5 -4.142,0 -7.5,3.358 -7.5,7.5 0,4.142 3.358,7.5 7.5,7.5 C -3.358,7.5 0,4.142 0,0"
             style="fill:#000000;fill-opacity:1;fill-rule:nonzero;stroke:none"
             id="path1919" /></g><g
           id="g1921"
           transform="translate(169.7305,392.79)"><path
             d="m 0,0 c 0,-9.128 -7.4,-16.528 -16.528,-16.528 -9.128,0 -16.528,7.4 -16.528,16.528 0,9.128 7.4,16.528 16.528,16.528 C -7.4,16.528 0,9.128 0,0 Z"
             style="fill:none;stroke:#000000;stroke-width:15;stroke-linecap:round;stroke-linejoin:round;stroke-miterlimit:10;stroke-dasharray:none;stroke-opacity:1"
             id="path1923" /></g><g
           id="g1925"
           transform="translate(435.7549,277.5352)"><path
             d="m 0,0 c 0,-9.128 -7.4,-16.528 -16.528,-16.528 -9.128,0 -16.528,7.4 -16.528,16.528 0,9.128 7.4,16.528 16.528,16.528 C -7.4,16.528 0,9.128 0,0 Z"
             style="fill:none;stroke:#000000;stroke-width:15;stroke-linecap:round;stroke-linejoin:round;stroke-miterlimit:10;stroke-dasharray:none;stroke-opacity:1"
             id="path1927" /></g><g
           id="g1929"
           transform="translate(169.7305,157.042)"><path
             d="m 0,0 c 0,-9.128 -7.4,-16.528 -16.528,-16.528 -9.128,0 -16.528,7.4 -16.528,16.528 0,9.128 7.4,16.528 16.528,16.528 C -7.4,16.528 0,9.128 0,0 Z"
             style="fill:none;stroke:#000000;stroke-width:15;stroke-linecap:round;stroke-linejoin:round;stroke-miterlimit:10;stroke-dasharray:none;stroke-opacity:1"
             id="path1931" /></g><g
           id="g1933"
           transform="translate(315.4985,132.4302)"><path
             d="m 0,0 c 2.121,0.479 4.328,0.731 6.594,0.731 16.47,0 29.821,-13.351 29.821,-29.821 0,-16.47 -13.351,-29.821 -29.821,-29.821 -16.47,0 -29.822,13.351 -29.822,29.821 0,2.131 0.224,4.209 0.648,6.212"
             style="fill:none;stroke:#000000;stroke-width:15;stroke-linecap:round;stroke-linejoin:round;stroke-miterlimit:10;stroke-dasharray:none;stroke-opacity:1"
             id="path1935" /></g><g
           id="g1937"
           transform="translate(366.644,408.6597)"><path
             d="m 0,0 c 0,-16.47 -13.352,-29.821 -29.821,-29.821 -16.471,0 -29.822,13.351 -29.822,29.821 0,16.47 13.351,29.821 29.822,29.821 C -13.352,29.821 0,16.47 0,0 Z"
             style="fill:none;stroke:#000000;stroke-width:15;stroke-linecap:round;stroke-linejoin:round;stroke-miterlimit:10;stroke-dasharray:none;stroke-opacity:1"
             id="path1939" /></g></g></g></g></svg>
