<svg id="Capa_1" enable-background="new 0 0 512 512" height="512" viewBox="0 0 512 512" width="512" xmlns="http://www.w3.org/2000/svg"><g><path d="m497 378.5h-482c-8.284 0-15 6.716-15 15 0 35.898 29.101 65 65 65h382c35.898 0 65-29.101 65-65 0-8.284-6.716-15-15-15z"/><path d="m296 101.488v-7.988c0-22.091-17.909-40-40-40s-40 17.909-40 40v7.988c13.123-1.975 26.483-2.988 40-2.988s26.877 1.013 40 2.988z"/><path d="m422.17 197.33c-44.386-44.386-103.399-68.83-166.17-68.83s-121.784 24.444-166.17 68.83c-40.831 40.831-64.77 94.044-68.345 151.17h469.029c-3.575-57.126-27.513-110.339-68.344-151.17z"/></g></svg>