<?xml version="1.0" encoding="UTF-8"?>
<svg xmlns="http://www.w3.org/2000/svg" xmlns:xlink="http://www.w3.org/1999/xlink" version="1.1" id="Capa_1" x="0px" y="0px" viewBox="0 0 512 512" style="enable-background:new 0 0 512 512;" xml:space="preserve" width="512" height="512">
<g>
	
		<path style="fill-rule:evenodd;clip-rule:evenodd;fill:none;stroke:#000000;stroke-width:29.9999;stroke-linecap:round;stroke-linejoin:round;stroke-miterlimit:22.9256;" d="&#10;&#9;&#9;M223,233.712c10.974-3.585,21.57-9.212,33-9.212c14.43,0,27.53,8.969,41.74,11.475c14.211,2.506,29.589-1.442,43.148,3.493&#10;&#9;&#9;c13.559,4.935,22.803,17.844,35.299,25.059c12.497,7.215,28.298,8.765,39.352,18.04c11.054,9.275,15.324,24.568,24.6,35.621&#10;&#9;&#9;c9.275,11.054,23.593,17.915,30.808,30.411c4.565,7.907,5.754,17.148,7.262,26.303"/>
	
		<path style="fill-rule:evenodd;clip-rule:evenodd;fill:none;stroke:#000000;stroke-width:29.9999;stroke-linecap:round;stroke-linejoin:round;stroke-miterlimit:22.9256;" d="&#10;&#9;&#9;M33.791,374.906c1.508-9.156,2.697-18.399,7.262-26.306c7.215-12.496,21.533-19.358,30.807-30.411&#10;&#9;&#9;c9.276-11.054,13.546-26.346,24.6-35.622c2.901-2.434,6.13-4.337,9.539-5.949"/>
	
		<line style="fill-rule:evenodd;clip-rule:evenodd;fill:none;stroke:#000000;stroke-width:29.9999;stroke-linecap:round;stroke-linejoin:round;stroke-miterlimit:22.9256;" x1="15" y1="379" x2="497" y2="379"/>
	
		<path style="fill-rule:evenodd;clip-rule:evenodd;fill:none;stroke:#000000;stroke-width:29.9999;stroke-linecap:round;stroke-linejoin:round;stroke-miterlimit:22.9256;" d="&#10;&#9;&#9;M28,379h456l-0.62,2.223C473.714,415.878,443.26,439,407.282,439c-100.864,0-201.721,0-302.565,0&#10;&#9;&#9;c-35.998,0-66.466-23.15-76.113-57.831L28,379z"/>
	
		<path style="fill-rule:evenodd;clip-rule:evenodd;fill:none;stroke:#000000;stroke-width:29.9999;stroke-linecap:round;stroke-linejoin:round;stroke-miterlimit:22.9256;" d="&#10;&#9;&#9;M102.385,241l-32.93-29.284c-10.894,6.299-25.035,5.26-34.953-3.56c-12.381-11.01-13.492-29.973-2.482-42.354&#10;&#9;&#9;c5.29-5.949,12.416-9.294,19.766-9.945c-0.212-7.375,2.278-14.843,7.568-20.792c11.01-12.381,29.973-13.492,42.354-2.483&#10;&#9;&#9;c9.918,8.82,12.602,22.743,7.619,34.298L141,195.046"/>
	
		<path style="fill-rule:evenodd;clip-rule:evenodd;fill:none;stroke:#000000;stroke-width:29.9999;stroke-linecap:round;stroke-linejoin:round;stroke-miterlimit:22.9256;" d="&#10;&#9;&#9;M112.193,209.576c20.919-23.524,72.16-12.108,95.684,8.812c23.524,20.919,25.636,56.948,4.717,80.472&#10;&#9;&#9;c-20.919,23.524-56.948,25.636-80.472,4.717C108.598,282.656,91.274,233.1,112.193,209.576z"/>
	
		<line style="fill-rule:evenodd;clip-rule:evenodd;fill:none;stroke:#000000;stroke-width:29.9999;stroke-linecap:round;stroke-linejoin:round;stroke-miterlimit:22.9256;" x1="327.001" y1="286" x2="327.001" y2="287"/>
	
		<line style="fill-rule:evenodd;clip-rule:evenodd;fill:none;stroke:#000000;stroke-width:29.9999;stroke-linecap:round;stroke-linejoin:round;stroke-miterlimit:22.9256;" x1="286.001" y1="323.238" x2="286.001" y2="324.239"/>
	
		<line style="fill-rule:evenodd;clip-rule:evenodd;fill:none;stroke:#000000;stroke-width:29.9999;stroke-linecap:round;stroke-linejoin:round;stroke-miterlimit:22.9256;" x1="376.041" y1="323" x2="376.041" y2="324"/>
	
		<path style="fill-rule:evenodd;clip-rule:evenodd;fill:none;stroke:#000000;stroke-width:29.9999;stroke-linecap:round;stroke-linejoin:round;stroke-miterlimit:22.9256;" d="&#10;&#9;&#9;M310.131,166c13-33-15-55,0-93"/>
	
		<path style="fill-rule:evenodd;clip-rule:evenodd;fill:none;stroke:#000000;stroke-width:29.9999;stroke-linecap:round;stroke-linejoin:round;stroke-miterlimit:22.9256;" d="&#10;&#9;&#9;M381.132,196.945c7-42-8.554-41.076,0-73"/>
</g>















</svg>
