<svg id="Layer_1" height="512" viewBox="0 0 100 100" width="512" xmlns="http://www.w3.org/2000/svg"><path d="m16.667 43.33c0 25.774 20.892 46.67 46.666 46.67v-6.667c-22.093 0-40-17.91-40-40.003z"/><path d="m63.333 16.667c-14.729 0-26.666 11.94-26.666 26.664 0 14.729 11.937 26.669 26.666 26.669v6.667c-18.411 0-33.333-14.926-33.333-33.337 0-18.408 14.922-33.33 33.333-33.33z"/><path d="m76.667 43.333c0-7.363-5.967-13.333-13.334-13.333-7.366 0-13.333 5.97-13.333 13.333s5.967 13.334 13.333 13.334v6.666c-11.048 0-20-8.955-20-20.003 0-11.045 8.952-19.997 20-19.997 11.049 0 20 8.952 20 19.997z"/></svg>