<svg id="Glyph" viewBox="0 0 64 64" xmlns="http://www.w3.org/2000/svg"><path d="m12.05131 46.44446h39.7603a19.44512 19.44512 0 0 0 -2.02322-17.92508c-2.07659 4.8154-5.60369 9.93209-11.10093 9.89548-7.34.035-9.588-9.00218-4.07752-13.77406a18.00466 18.00466 0 0 1 3.34373-2.26418 26.29065 26.29065 0 0 1 3.06088-1.37321 23.5635 23.5635 0 0 0 -10.21-2.30617c-14.99645-.1934-26.38955 14.22693-21.0173 27.7474zm2.57869-8.53273a1.04837 1.04837 0 0 1 -2.0965 0v-1.07973a1.04837 1.04837 0 0 1 2.09651.00005zm2.25377 4.60179a1.04841 1.04841 0 0 1 -2.0965-.00006v-1.06912a1.04842 1.04842 0 0 1 2.09651.00006zm0-9.23511a1.04836 1.04836 0 0 1 -2.0965-.00005v-1.07962a1.04842 1.04842 0 0 1 2.09651.00006zm2.25371 4.63332a1.04836 1.04836 0 0 1 -2.09651 0v-1.07973a1.04836 1.04836 0 0 1 2.0965.00005z"/><path d="m56.16182 48.541h-50.72498a.698.698 0 0 0 -.69182.69188v2.25371a.6912.6912 0 0 0 .69182.69188h50.725a.69125.69125 0 0 0 .69188-.69188v-2.25374a.698.698 0 0 0 -.6919-.69185z"/><path d="m50.45932 54.275h-42.68483a2.74969 2.74969 0 0 0 -.0524.51363v2.62063a2.59919 2.59919 0 0 0 2.59965 2.59965h40.13758a2.59925 2.59925 0 0 0 2.59968-2.5997v-2.62063a2.74968 2.74968 0 0 0 -.05247-.51363z"/><path d="m34.84039 34.704c2.19326 2.40843 6.241 1.932 8.57467-.283a19.70311 19.70311 0 0 0 4.25593-6.3c1.57454-3.95871 1.74155-6.47576-2.35849-6.06935a19.78178 19.78178 0 0 0 -9.29808 4.151c-2.68352 2.42151-3.20765 6.22668-1.17403 8.50135z"/><path d="m58.68814 17.12486a2.18315 2.18315 0 0 0 -2.49485-.5556 1.05967 1.05967 0 0 1 -1.195-.26208 1.09066 1.09066 0 0 1 -.13628-1.21594 2.223 2.223 0 1 0 -3.59543.40891 1.05159 1.05159 0 0 1 -.07346 1.48843l-3.44872 3.10285a3.81713 3.81713 0 0 1 2.977 3.31249l3.45926-3.11338a1.04271 1.04271 0 0 1 1.3942 0 2.227 2.227 0 0 0 3.11328-3.16568z"/><path d="m8.63861 21.84155a1.04845 1.04845 0 0 0 2.0965-.00007 2.737 2.737 0 0 1 .51184-1.666 4.75472 4.75472 0 0 0 .81076-2.74449 4.75422 4.75422 0 0 0 -.81076-2.744 3.01622 3.01622 0 0 1 -.00039-3.328 4.74876 4.74876 0 0 0 .81115-2.742 1.04845 1.04845 0 0 0 -2.0965.00007 2.72158 2.72158 0 0 1 -.51185 1.66194 4.74757 4.74757 0 0 0 -.81075 2.74143 4.75484 4.75484 0 0 0 .81075 2.7445 2.737 2.737 0 0 1 .51185 1.66607c-.08752 1.96982-1.37262 2.04748-1.3226 4.41055z"/><path d="m19.83 16.46209a1.04845 1.04845 0 0 0 2.0965-.00007 2.22273 2.22273 0 0 1 .42176-1.366 4.23138 4.23138 0 0 0 .72068-2.44456 4.23083 4.23083 0 0 0 -.72068-2.444 2.45669 2.45669 0 0 1 .00009-2.72914 4.226 4.226 0 0 0 .72065-2.44157 1.04846 1.04846 0 0 0 -2.09651.00006c-.08975 1.65519-1.19325 1.75908-1.14235 3.80449-.05078 2.04906 1.05329 2.14985 1.14244 3.81009-.08919 1.6609-1.19342 1.76115-1.14258 3.8107z"/><path d="m29.34365 13.19244a1.04845 1.04845 0 0 0 2.0965-.00007 1.30138 1.30138 0 0 1 .25849-.82092 3.32645 3.32645 0 0 0 .55688-1.89894 3.327 3.327 0 0 0 -.55688-1.89945c-.85729-1.38033.66418-1.84345.55682-3.53631a1.04842 1.04842 0 0 0 -2.09644.00006c-.09451 1.08992-.85494 1.22684-.81528 2.71529-.03915 1.49186.72079 1.6263.81538 2.72038-.09487 1.09396-.85463 1.22834-.81547 2.71996z"/></svg>