<?xml version="1.0" encoding="UTF-8" standalone="no"?>
<!-- Created with Inkscape (http://www.inkscape.org/) -->

<svg
   version="1.1"
   id="svg6741"
   xml:space="preserve"
   width="682.66669"
   height="682.66669"
   viewBox="0 0 682.66669 682.66669"
   xmlns="http://www.w3.org/2000/svg"
   xmlns:svg="http://www.w3.org/2000/svg"><defs
     id="defs6745"><clipPath
       clipPathUnits="userSpaceOnUse"
       id="clipPath6755"><path
         d="M 0,512 H 512 V 0 H 0 Z"
         id="path6753" /></clipPath></defs><g
     id="g6747"
     transform="matrix(1.3333333,0,0,-1.3333333,0,682.66667)"><g
       id="g6749"><g
         id="g6751"
         clip-path="url(#clipPath6755)"><g
           id="g6757"
           transform="translate(133.0347,471.9932)"><path
             d="m 0,0 c 36.259,20.687 78.232,32.507 122.965,32.507 137.243,0 248.5,-111.257 248.5,-248.5 0,-137.243 -111.257,-248.5 -248.5,-248.5 -137.242,0 -248.5,111.257 -248.5,248.5 0,79.763 37.58,150.749 96,196.218"
             style="fill:none;stroke:#000000;stroke-width:15;stroke-linecap:round;stroke-linejoin:round;stroke-miterlimit:10;stroke-dasharray:none;stroke-opacity:1"
             id="path6759" /></g><g
           id="g6761"
           transform="translate(462.8437,266.0459)"><path
             d="m 0,0 c 0.159,-3.329 0.24,-6.678 0.24,-10.046 0,-114.369 -92.715,-207.083 -207.084,-207.083 -114.369,0 -207.083,92.714 -207.083,207.083 0,114.369 92.714,207.083 207.083,207.083 98.762,0 181.376,-69.136 202.084,-161.651"
             style="fill:none;stroke:#000000;stroke-width:15;stroke-linecap:round;stroke-linejoin:round;stroke-miterlimit:10;stroke-dasharray:none;stroke-opacity:1"
             id="path6763" /></g><g
           id="g6765"
           transform="translate(438.4722,256)"><path
             d="m 0,0 c 0,-11.984 -7.118,-23.113 -9.358,-34.44 -2.309,-11.672 -0.036,-24.668 -4.488,-35.407 -4.531,-10.926 -15.374,-18.49 -21.876,-28.202 -6.551,-9.786 -9.426,-22.681 -17.723,-30.978 -8.297,-8.298 -21.194,-11.172 -30.979,-17.724 -9.712,-6.501 -17.276,-17.345 -28.201,-21.875 -10.739,-4.453 -23.735,-2.179 -35.407,-4.488 -11.327,-2.24 -22.455,-9.359 -34.44,-9.359 -11.985,0 -23.113,7.119 -34.441,9.359 -11.671,2.309 -24.668,0.035 -35.406,4.488 -10.927,4.531 -18.49,15.374 -28.202,21.876 -9.786,6.552 -22.682,9.426 -30.979,17.723 -8.297,8.298 -11.171,21.193 -17.723,30.979 -6.502,9.712 -17.344,17.276 -21.875,28.201 -4.453,10.74 -2.179,23.735 -4.488,35.407 -2.241,11.327 -9.358,22.456 -9.358,34.44 0,11.984 7.117,23.113 9.358,34.44 2.309,11.672 0.035,24.668 4.488,35.407 4.531,10.926 15.374,18.49 21.876,28.202 6.551,9.786 9.426,22.681 17.723,30.978 8.297,8.298 21.193,11.172 30.979,17.724 9.712,6.501 17.275,17.345 28.201,21.875 10.739,4.453 23.735,2.179 35.406,4.488 11.328,2.24 22.456,9.359 34.441,9.359 11.985,0 23.113,-7.119 34.44,-9.359 11.672,-2.309 24.668,-0.035 35.407,-4.488 10.926,-4.531 18.49,-15.374 28.201,-21.876 9.786,-6.552 22.682,-9.426 30.98,-17.723 8.297,-8.298 11.171,-21.193 17.722,-30.979 6.502,-9.712 17.345,-17.276 21.876,-28.201 4.453,-10.74 2.179,-23.735 4.488,-35.407 C -7.118,23.113 0,11.984 0,0 Z"
             style="fill:none;stroke:#000000;stroke-width:15;stroke-linecap:round;stroke-linejoin:round;stroke-miterlimit:10;stroke-dasharray:none;stroke-opacity:1"
             id="path6767" /></g><g
           id="g6769"
           transform="translate(256,463.083)"><path
             d="M 0,0 V 13.806"
             style="fill:none;stroke:#000000;stroke-width:15;stroke-linecap:round;stroke-linejoin:round;stroke-miterlimit:10;stroke-dasharray:none;stroke-opacity:1"
             id="path6771" /></g><g
           id="g6773"
           transform="translate(202.4028,456.0273)"><path
             d="M 0,0 -3.573,13.335"
             style="fill:none;stroke:#000000;stroke-width:15;stroke-linecap:round;stroke-linejoin:round;stroke-miterlimit:10;stroke-dasharray:none;stroke-opacity:1"
             id="path6775" /></g><g
           id="g6777"
           transform="translate(152.4585,435.3398)"><path
             d="M 0,0 -6.903,11.955"
             style="fill:none;stroke:#000000;stroke-width:15;stroke-linecap:round;stroke-linejoin:round;stroke-miterlimit:10;stroke-dasharray:none;stroke-opacity:1"
             id="path6779" /></g><g
           id="g6781"
           transform="translate(109.5698,402.4297)"><path
             d="M 0,0 -9.762,9.763"
             style="fill:none;stroke:#000000;stroke-width:15;stroke-linecap:round;stroke-linejoin:round;stroke-miterlimit:10;stroke-dasharray:none;stroke-opacity:1"
             id="path6783" /></g><g
           id="g6785"
           transform="translate(76.6606,359.542)"><path
             d="M 0,0 -11.956,6.902"
             style="fill:none;stroke:#000000;stroke-width:15;stroke-linecap:round;stroke-linejoin:round;stroke-miterlimit:10;stroke-dasharray:none;stroke-opacity:1"
             id="path6787" /></g><g
           id="g6789"
           transform="translate(55.9727,309.5967)"><path
             d="M 0,0 -13.335,3.573"
             style="fill:none;stroke:#000000;stroke-width:15;stroke-linecap:round;stroke-linejoin:round;stroke-miterlimit:10;stroke-dasharray:none;stroke-opacity:1"
             id="path6791" /></g><g
           id="g6793"
           transform="translate(48.9165,256)"><path
             d="M 0,0 H -13.805"
             style="fill:none;stroke:#000000;stroke-width:15;stroke-linecap:round;stroke-linejoin:round;stroke-miterlimit:10;stroke-dasharray:none;stroke-opacity:1"
             id="path6795" /></g><g
           id="g6797"
           transform="translate(55.9727,202.4033)"><path
             d="M 0,0 -13.335,-3.573"
             style="fill:none;stroke:#000000;stroke-width:15;stroke-linecap:round;stroke-linejoin:round;stroke-miterlimit:10;stroke-dasharray:none;stroke-opacity:1"
             id="path6799" /></g><g
           id="g6801"
           transform="translate(76.6606,152.458)"><path
             d="M 0,0 -11.956,-6.902"
             style="fill:none;stroke:#000000;stroke-width:15;stroke-linecap:round;stroke-linejoin:round;stroke-miterlimit:10;stroke-dasharray:none;stroke-opacity:1"
             id="path6803" /></g><g
           id="g6805"
           transform="translate(109.5698,109.5703)"><path
             d="M 0,0 -9.762,-9.763"
             style="fill:none;stroke:#000000;stroke-width:15;stroke-linecap:round;stroke-linejoin:round;stroke-miterlimit:10;stroke-dasharray:none;stroke-opacity:1"
             id="path6807" /></g><g
           id="g6809"
           transform="translate(152.4585,76.6602)"><path
             d="M 0,0 -6.903,-11.955"
             style="fill:none;stroke:#000000;stroke-width:15;stroke-linecap:round;stroke-linejoin:round;stroke-miterlimit:10;stroke-dasharray:none;stroke-opacity:1"
             id="path6811" /></g><g
           id="g6813"
           transform="translate(202.4028,55.9727)"><path
             d="M 0,0 -3.573,-13.335"
             style="fill:none;stroke:#000000;stroke-width:15;stroke-linecap:round;stroke-linejoin:round;stroke-miterlimit:10;stroke-dasharray:none;stroke-opacity:1"
             id="path6815" /></g><g
           id="g6817"
           transform="translate(256,48.917)"><path
             d="M 0,0 V -13.806"
             style="fill:none;stroke:#000000;stroke-width:15;stroke-linecap:round;stroke-linejoin:round;stroke-miterlimit:10;stroke-dasharray:none;stroke-opacity:1"
             id="path6819" /></g><g
           id="g6821"
           transform="translate(309.5972,55.9727)"><path
             d="M 0,0 3.573,-13.335"
             style="fill:none;stroke:#000000;stroke-width:15;stroke-linecap:round;stroke-linejoin:round;stroke-miterlimit:10;stroke-dasharray:none;stroke-opacity:1"
             id="path6823" /></g><g
           id="g6825"
           transform="translate(359.5415,76.6602)"><path
             d="M 0,0 6.903,-11.955"
             style="fill:none;stroke:#000000;stroke-width:15;stroke-linecap:round;stroke-linejoin:round;stroke-miterlimit:10;stroke-dasharray:none;stroke-opacity:1"
             id="path6827" /></g><g
           id="g6829"
           transform="translate(402.4302,109.5703)"><path
             d="M 0,0 9.762,-9.763"
             style="fill:none;stroke:#000000;stroke-width:15;stroke-linecap:round;stroke-linejoin:round;stroke-miterlimit:10;stroke-dasharray:none;stroke-opacity:1"
             id="path6831" /></g><g
           id="g6833"
           transform="translate(435.3394,152.458)"><path
             d="M 0,0 11.956,-6.902"
             style="fill:none;stroke:#000000;stroke-width:15;stroke-linecap:round;stroke-linejoin:round;stroke-miterlimit:10;stroke-dasharray:none;stroke-opacity:1"
             id="path6835" /></g><g
           id="g6837"
           transform="translate(456.0273,202.4033)"><path
             d="M 0,0 13.335,-3.573"
             style="fill:none;stroke:#000000;stroke-width:15;stroke-linecap:round;stroke-linejoin:round;stroke-miterlimit:10;stroke-dasharray:none;stroke-opacity:1"
             id="path6839" /></g><g
           id="g6841"
           transform="translate(463.0835,256)"><path
             d="M 0,0 H 13.805"
             style="fill:none;stroke:#000000;stroke-width:15;stroke-linecap:round;stroke-linejoin:round;stroke-miterlimit:10;stroke-dasharray:none;stroke-opacity:1"
             id="path6843" /></g><g
           id="g6845"
           transform="translate(456.0273,309.5967)"><path
             d="M 0,0 13.335,3.573"
             style="fill:none;stroke:#000000;stroke-width:15;stroke-linecap:round;stroke-linejoin:round;stroke-miterlimit:10;stroke-dasharray:none;stroke-opacity:1"
             id="path6847" /></g><g
           id="g6849"
           transform="translate(435.3394,359.542)"><path
             d="M 0,0 11.956,6.902"
             style="fill:none;stroke:#000000;stroke-width:15;stroke-linecap:round;stroke-linejoin:round;stroke-miterlimit:10;stroke-dasharray:none;stroke-opacity:1"
             id="path6851" /></g><g
           id="g6853"
           transform="translate(402.4302,402.4297)"><path
             d="M 0,0 9.762,9.763"
             style="fill:none;stroke:#000000;stroke-width:15;stroke-linecap:round;stroke-linejoin:round;stroke-miterlimit:10;stroke-dasharray:none;stroke-opacity:1"
             id="path6855" /></g><g
           id="g6857"
           transform="translate(359.5415,435.3398)"><path
             d="M 0,0 6.903,11.955"
             style="fill:none;stroke:#000000;stroke-width:15;stroke-linecap:round;stroke-linejoin:round;stroke-miterlimit:10;stroke-dasharray:none;stroke-opacity:1"
             id="path6859" /></g><g
           id="g6861"
           transform="translate(309.5972,456.0273)"><path
             d="M 0,0 3.573,13.335"
             style="fill:none;stroke:#000000;stroke-width:15;stroke-linecap:round;stroke-linejoin:round;stroke-miterlimit:10;stroke-dasharray:none;stroke-opacity:1"
             id="path6863" /></g><g
           id="g6865"
           transform="translate(279.4473,380.25)"><path
             d="M 0,0 H 28.566"
             style="fill:none;stroke:#000000;stroke-width:15;stroke-linecap:round;stroke-linejoin:round;stroke-miterlimit:10;stroke-dasharray:none;stroke-opacity:1"
             id="path6867" /></g><g
           id="g6869"
           transform="translate(307.1694,260.2939)"><path
             d="M 0,0 H 28.567"
             style="fill:none;stroke:#000000;stroke-width:15;stroke-linecap:round;stroke-linejoin:round;stroke-miterlimit:10;stroke-dasharray:none;stroke-opacity:1"
             id="path6871" /></g><g
           id="g6873"
           transform="translate(237.0391,216.2666)"><path
             d="M 0,0 H 25.495"
             style="fill:none;stroke:#000000;stroke-width:15;stroke-linecap:round;stroke-linejoin:round;stroke-miterlimit:10;stroke-dasharray:none;stroke-opacity:1"
             id="path6875" /></g><g
           id="g6877"
           transform="translate(304.8877,119.2822)"><path
             d="M 0,0 16.565,16.565"
             style="fill:none;stroke:#000000;stroke-width:15;stroke-linecap:round;stroke-linejoin:round;stroke-miterlimit:10;stroke-dasharray:none;stroke-opacity:1"
             id="path6879" /></g><g
           id="g6881"
           transform="translate(366.4443,239.9648)"><path
             d="M 0,0 V -25.381"
             style="fill:none;stroke:#000000;stroke-width:15;stroke-linecap:round;stroke-linejoin:round;stroke-miterlimit:10;stroke-dasharray:none;stroke-opacity:1"
             id="path6883" /></g><g
           id="g6885"
           transform="translate(308.3291,216.2666)"><path
             d="M 0,0 16.589,-16.589"
             style="fill:none;stroke:#000000;stroke-width:15;stroke-linecap:round;stroke-linejoin:round;stroke-miterlimit:10;stroke-dasharray:none;stroke-opacity:1"
             id="path6887" /></g><g
           id="g6889"
           transform="translate(297.4165,297.417)"><path
             d="M 0,0 19.207,19.206"
             style="fill:none;stroke:#000000;stroke-width:15;stroke-linecap:round;stroke-linejoin:round;stroke-miterlimit:10;stroke-dasharray:none;stroke-opacity:1"
             id="path6891" /></g><g
           id="g6893"
           transform="translate(360.5356,163.5635)"><path
             d="M 0,0 19.207,19.207"
             style="fill:none;stroke:#000000;stroke-width:15;stroke-linecap:round;stroke-linejoin:round;stroke-miterlimit:10;stroke-dasharray:none;stroke-opacity:1"
             id="path6895" /></g><g
           id="g6897"
           transform="translate(282.9805,183.0537)"><path
             d="M 0,0 V -27.163"
             style="fill:none;stroke:#000000;stroke-width:15;stroke-linecap:round;stroke-linejoin:round;stroke-miterlimit:10;stroke-dasharray:none;stroke-opacity:1"
             id="path6899" /></g><g
           id="g6901"
           transform="translate(394.0557,301.4316)"><path
             d="M 0,0 -19.314,19.314"
             style="fill:none;stroke:#000000;stroke-width:15;stroke-linecap:round;stroke-linejoin:round;stroke-miterlimit:10;stroke-dasharray:none;stroke-opacity:1"
             id="path6903" /></g><g
           id="g6905"
           transform="translate(137.082,173.1133)"><path
             d="M 0,0 -19.314,19.314"
             style="fill:none;stroke:#000000;stroke-width:15;stroke-linecap:round;stroke-linejoin:round;stroke-miterlimit:10;stroke-dasharray:none;stroke-opacity:1"
             id="path6907" /></g><g
           id="g6909"
           transform="translate(145.5557,214.3379)"><path
             d="m 0,0 11.776,-20.397 c 3.246,-5.622 10.434,-7.548 16.055,-4.302 l 12.632,7.293 c 4.852,2.801 7.052,8.637 5.257,13.944 l -8.566,25.32 c -2.126,6.287 0.916,13.153 7.001,15.8 l 65.001,28.285 c 8.063,3.509 11.275,13.255 6.878,20.871 l -51.866,89.835 c -5.058,8.76 -17.838,8.349 -22.322,-0.719 L 23.327,138.475 c -3.709,-7.5 -9.153,-14.008 -15.88,-18.984 L -15.881,102.24 C -33.106,89.502 -38.026,65.863 -27.315,47.311 l 9.733,-16.858"
             style="fill:none;stroke:#000000;stroke-width:15;stroke-linecap:round;stroke-linejoin:round;stroke-miterlimit:10;stroke-dasharray:none;stroke-opacity:1"
             id="path6911" /></g><g
           id="g6913"
           transform="translate(151.7222,277.0684)"><path
             d="m 0,0 c 9.896,-0.127 19.3,-6.322 22.752,-16.528 l 8.235,-24.343"
             style="fill:none;stroke:#000000;stroke-width:15;stroke-linecap:round;stroke-linejoin:round;stroke-miterlimit:10;stroke-dasharray:none;stroke-opacity:1"
             id="path6915" /></g><g
           id="g6917"
           transform="translate(167.1826,188.0674)"><path
             d="m 0,0 25.967,-44.977 c 0.559,-0.967 0.275,-2.173 -0.609,-2.856 -6.269,-4.841 -7.96,-13.862 -3.381,-20.747 4.117,-6.191 13.197,-8.559 19.816,-5.173 3.216,1.645 5.591,4.235 6.983,7.243 1.095,2.364 3.501,3.753 6.096,3.52 3.299,-0.298 6.73,0.462 9.76,2.423 6.243,4.039 8.735,13.091 5.431,19.753 -3.671,7.4 -12.318,10.446 -19.641,7.45 -1.033,-0.423 -2.217,-0.066 -2.776,0.901 L 22.144,11.708"
             style="fill:none;stroke:#000000;stroke-width:15;stroke-linecap:round;stroke-linejoin:round;stroke-miterlimit:10;stroke-dasharray:none;stroke-opacity:1"
             id="path6919" /></g><g
           id="g6921"
           transform="translate(167.8672,313.7285)"><path
             d="M 0,0 C 9.879,7.307 17.979,16.989 23.425,28.003 L 31.73,44.799"
             style="fill:none;stroke:#000000;stroke-width:15;stroke-linecap:round;stroke-linejoin:round;stroke-miterlimit:10;stroke-dasharray:none;stroke-opacity:1"
             id="path6923" /></g><g
           id="g6925"
           transform="translate(234.1875,298.6143)"><path
             d="M 0,0 -65.645,-28.564"
             style="fill:none;stroke:#000000;stroke-width:15;stroke-linecap:round;stroke-linejoin:round;stroke-miterlimit:10;stroke-dasharray:none;stroke-opacity:1"
             id="path6927" /></g></g></g></g></svg>
