<?xml version="1.0" encoding="UTF-8"?>
<svg xmlns="http://www.w3.org/2000/svg" xmlns:xlink="http://www.w3.org/1999/xlink" version="1.1" id="Capa_1" x="0px" y="0px" viewBox="0 0 512.861 512.861" style="enable-background:new 0 0 512.861 512.861;" xml:space="preserve" width="512" height="512">
<g>
	<line style="fill:none;stroke:#000000;stroke-width:30;stroke-miterlimit:10;" x1="0.43" y1="497.861" x2="512.43" y2="497.861"/>
	<path style="fill:none;stroke:#000000;stroke-width:30;stroke-miterlimit:10;" d="M379.476,291.541H133.385v-35&#10;&#9;&#9;c9.763-9.763,15.237-15.237,25-25h196.091c9.763,9.763,15.237,15.237,25,25V291.541z"/>
	<g>
		<path style="fill:none;stroke:#000000;stroke-width:30;stroke-miterlimit:10;" d="M15.43,185.92v223.031h127.059v-35.273&#10;&#9;&#9;&#9;c-9.763-9.763-15.237-15.237-25-25H20.453"/>
		
			<line style="fill:none;stroke:#000000;stroke-width:30;stroke-miterlimit:10;" x1="74.699" y1="408.951" x2="74.699" y2="490.782"/>
	</g>
	<g>
		<path style="fill:none;stroke:#000000;stroke-width:30;stroke-miterlimit:10;" d="M497.43,185.92v223.031H370.372v-35.273&#10;&#9;&#9;&#9;c9.763-9.763,15.237-15.237,25-25h97.036"/>
		
			<line style="fill:none;stroke:#000000;stroke-width:30;stroke-miterlimit:10;" x1="438.162" y1="408.951" x2="438.162" y2="490.782"/>
	</g>
	<line style="fill:none;stroke:#000000;stroke-width:30;stroke-miterlimit:10;" x1="254.7" y1="291.541" x2="254.7" y2="489.401"/>
	<g>
		<polygon style="fill:none;stroke:#000000;stroke-width:30;stroke-miterlimit:10;" points="316.523,103.413 196.337,103.413 &#10;&#9;&#9;&#9;196.337,81.457 246.382,43.413 265.479,43.413 316.523,81.457 &#9;&#9;"/>
		<line style="fill:none;stroke:#000000;stroke-width:30;stroke-miterlimit:10;" x1="256.43" y1="0" x2="256.43" y2="43.413"/>
	</g>
</g>















</svg>
