<svg id="레이어_1" height="512" viewBox="0 0 512 512" width="512" xmlns="http://www.w3.org/2000/svg"><path d="m256 471.012c-1.326 0-2.598-.527-3.536-1.465l-35.004-35.008c-1.953-1.952-1.953-5.118 0-7.07l206.476-206.473-27.933-27.933-206.471 206.476c-.938.938-2.209 1.465-3.536 1.465s-2.598-.526-3.536-1.465l-35-35c-1.953-1.952-1.953-5.118 0-7.07l206.472-206.477-27.929-27.929-206.475 206.472c-1.953 1.953-5.119 1.952-7.071.001l-35.004-35c-.938-.938-1.465-2.21-1.465-3.536s.527-2.598 1.464-3.535l206.477-206.477-27.929-27.928-206.476 206.471c-1.953 1.953-5.118 1.953-7.071 0-1.953-1.952-1.953-5.118 0-7.071l210.012-210.007c1.953-1.952 5.119-1.952 7.071 0l35 35c1.953 1.953 1.953 5.119 0 7.071l-206.476 206.476 27.933 27.929 206.477-206.472c1.951-1.952 5.119-1.952 7.07 0l35 35c1.953 1.953 1.953 5.119 0 7.071l-206.473 206.476 27.929 27.929 206.473-206.476c.938-.938 2.209-1.464 3.535-1.464s2.598.527 3.535 1.464l35.004 35.004c.938.938 1.465 2.209 1.465 3.536s-.526 2.598-1.465 3.536l-206.476 206.471 27.933 27.936 206.477-206.48c1.951-1.952 5.119-1.952 7.07 0 1.953 1.953 1.953 5.119 0 7.071l-210.012 210.016c-.937.938-2.209 1.465-3.535 1.465z" fill="rgb(0,0,0)"/></svg>