<svg id="Layer_1" height="512" viewBox="0 0 100 100" width="512" xmlns="http://www.w3.org/2000/svg"><path d="m10.006 33.432c-.001 12.941 10.485 23.427 23.426 23.431 12.948-.004 23.43-10.489 23.43-23.431 0-12.943-10.487-23.432-23.43-23.428l-23.432.002z"/><path d="m89.99 66.569c.003-12.939-10.485-23.431-23.421-23.431-12.949 0-23.433 10.494-23.433 23.434 0 12.937 10.49 23.428 23.433 23.425h23.431z"/><circle cx="76.667" cy="23.334" r="13.333"/><path d="m33.333 78.333c0 6.442-5.227 11.667-11.67 11.667-6.442 0-11.663-5.225-11.663-11.667 0-6.441 5.221-11.666 11.664-11.666s11.669 5.225 11.669 11.666z"/></svg>