<svg id="Layer_1" enable-background="new 0 0 450 450" height="512" viewBox="0 0 450 450" width="512" xmlns="http://www.w3.org/2000/svg"><path d="m225.3 429.6c-11.5 0-21-7.8-30.2-15.3-6.4-5.3-12.5-10.3-18.5-11.9-6.1-1.7-14.3-.3-22.3 1-11.2 1.9-22.7 3.8-32-1.6s-13.2-16.4-16.9-27.1c-2.6-7.4-5.4-15.1-9.7-19.4s-12-7-19.4-9.7c-10.6-3.8-21.7-7.7-27.1-16.9s-3.5-20.8-1.6-32c1.3-7.9 2.7-16.1 1-22.3-1.6-6-6.6-12.1-11.9-18.5-7.5-9.2-15.3-18.7-15.3-30.2s7.8-21 15.3-30.2c5.3-6.4 10.3-12.5 12-18.4 1.7-6.1.3-14.3-1-22.3-1.9-11.2-3.8-22.7 1.6-32s16.4-13.2 27.1-16.9c7.4-2.6 15.1-5.4 19.4-9.7s7-12 9.7-19.4c3.8-10.6 7.7-21.7 16.9-27.1s20.8-3.5 32-1.6c7.9 1.3 16.1 2.7 22.3 1 6-1.6 12.1-6.6 18.5-11.9 9.2-7.5 18.7-15.3 30.2-15.3s21 7.8 30.2 15.3c6.4 5.3 12.5 10.3 18.5 11.9 6.1 1.7 14.3.3 22.3-1 11.2-1.9 22.7-3.8 32 1.6s13.2 16.4 16.9 27.1c2.6 7.4 5.4 15.1 9.7 19.4s12 7 19.4 9.7c10.6 3.8 21.7 7.7 27.1 16.9s3.5 20.8 1.6 32c-1.3 7.9-2.7 16.1-1 22.3 1.6 6 6.6 12.1 11.9 18.5 7.5 9.2 15.3 18.7 15.3 30.2s-7.8 21-15.3 30.2c-5.3 6.4-10.3 12.5-11.9 18.5-1.7 6.1-.3 14.3 1 22.3 1.9 11.2 3.8 22.7-1.6 32s-16.4 13.2-27.1 16.9c-7.4 2.6-15.1 5.4-19.4 9.7s-7 12-9.7 19.4c-3.8 10.6-7.7 21.7-16.9 27.1s-20.8 3.5-32 1.6c-7.9-1.3-16.1-2.7-22.3-1-6 1.6-12.1 6.6-18.5 11.9-9.3 7.4-18.8 15.2-30.3 15.2zm-55.4-38.1c3.2 0 6.3.3 9.3 1.1 8 2.2 15.2 8.1 22.2 13.9 8.2 6.7 15.9 13.1 23.8 13.1s15.7-6.3 23.8-13.1c7-5.7 14.2-11.6 22.2-13.9 8.3-2.3 17.6-.7 26.6.8 9.8 1.7 19.1 3.2 25.2-.4s9.2-12.4 12.6-21.8c3-8.5 6.1-17.3 12-23.2s14.7-9 23.2-12c9.4-3.3 18.2-6.4 21.8-12.6 3.6-6.1 2-15.4.4-25.2-1.5-9-3.1-18.3-.8-26.6 2.2-8 8.1-15.2 13.9-22.2 6.7-8.2 13.1-15.9 13.1-23.8s-6.3-15.7-13.1-23.8c-5.7-7-11.6-14.2-13.9-22.2-2.3-8.3-.7-17.6.8-26.6 1.7-9.8 3.2-19.1-.4-25.2s-12.4-9.2-21.8-12.6c-8.5-3-17.3-6.1-23.2-12s-9-14.7-12-23.2c-3.3-9.4-6.4-18.2-12.6-21.8-6.1-3.6-15.4-2-25.2-.4-9 1.5-18.3 3.1-26.6.8-8-2.2-15.2-8.1-22.2-13.9-8.2-6.7-15.9-13.1-23.8-13.1s-15.7 6.3-23.8 13.1c-7 5.7-14.2 11.6-22.2 13.9-8.3 2.3-17.6.7-26.6-.8-9.8-1.7-19.1-3.2-25.2.4s-9.2 12.4-12.6 21.8c-3 8.5-6.1 17.3-12 23.2s-14.7 9-23.2 12c-9.4 3.3-18.2 6.4-21.8 12.6-3.6 6.1-2 15.4-.4 25.2 1.5 9 3.1 18.3.8 26.6-2.2 8-8.1 15.2-13.9 22.2-6.7 8.2-13.1 15.9-13.1 23.8s6.3 15.7 13.1 23.8c5.7 7 11.6 14.2 13.9 22.2 2.3 8.3.7 17.6-.8 26.6-1.7 9.8-3.2 19.1.4 25.2s12.4 9.2 21.8 12.6c8.5 3 17.3 6.1 23.2 12s9 14.7 12 23.2c3.3 9.4 6.4 18.2 12.6 21.8 6.1 3.6 15.4 2 25.2.4 5.8-.9 11.7-1.9 17.3-1.9z"/><path d="m316.7 148.6c-1.5 0-3-.7-4-2l-27.4-35.9c-.8-1.1-1.2-2.4-1-3.7s.9-2.5 1.9-3.3c5.9-4.5 13.1-6.4 20.4-5.4s13.8 4.7 18.3 10.6 6.4 13.1 5.4 20.4-4.7 13.8-10.6 18.3c-.9.7-2 1-3 1zm-20-39.4 20.5 26.8c1.7-2.3 2.8-5.1 3.2-8 .6-4.7-.6-9.3-3.5-13-2.9-3.7-7-6.1-11.6-6.8-3-.4-5.9 0-8.6 1z"/><path d="m278.5 95c-1.7 0-3.4-.9-4.3-2.5-2.5-4.2-5.3-6.6-8.4-7.3-4.7-1-9.2 2.1-9.2 2.1-2.2 1.6-5.4 1.1-7-1.1s-1.1-5.3 1.1-6.9c.8-.6 8.1-5.7 17.1-3.9 6.1 1.2 11.2 5.3 15.1 12 1.4 2.4.6 5.4-1.8 6.8-.9.6-1.8.8-2.6.8z"/><path d="m374.5 251.3c-1.3 0-2.5-.5-3.5-1.4-2-1.9-2-5.1-.1-7.1 3.4-3.4 5-6.8 4.9-10-.2-4.8-4.4-8.3-4.5-8.4-2.1-1.8-2.4-4.9-.7-7s4.8-2.5 7-.8c.8.6 7.6 6.3 8.2 15.5.4 6.2-2.2 12.1-7.7 17.7-1.1 1-2.4 1.5-3.6 1.5z"/><path d="m282.5 380.8c-2.2 0-4.2-1.5-4.8-3.7-.7-2.7.8-5.4 3.5-6.2 4.7-1.3 7.8-3.4 9.3-6.3 2.1-4.3.3-9.3.3-9.4-1-2.6.3-5.5 2.8-6.5 2.6-1 5.5.3 6.5 2.8.4.9 3.4 9.3-.7 17.5-2.8 5.5-8 9.4-15.5 11.5-.5.2-1 .3-1.4.3z"/><path d="m239 377.4c-4.1 0-8.5-1.3-13-3.8-2.4-1.4-3.2-4.4-1.9-6.8 1.4-2.4 4.4-3.2 6.8-1.9 4.2 2.4 7.9 3.1 11 2.1 4.5-1.5 6.8-6.4 6.8-6.4 1.1-2.5 4.1-3.7 6.6-2.6s3.7 4.1 2.6 6.6c-.4.9-4.2 9-12.8 11.9-2 .6-4.1.9-6.1.9z"/><path d="m235.5 338.2c-4.1 0-8.5-1.3-13-3.8-2.4-1.4-3.2-4.4-1.9-6.8 1.4-2.4 4.4-3.2 6.8-1.9 4.2 2.4 7.9 3.1 11 2.1 4.6-1.5 6.9-6.4 6.9-6.5 1.1-2.5 4.1-3.6 6.6-2.5s3.6 4 2.5 6.6c-.4.9-4.2 9-12.9 11.9-1.8.6-3.9.9-6 .9z"/><path d="m186.8 376.5c-1.3 0-2.6-.1-3.9-.4-6.1-1.2-11.2-5.3-15.1-12-1.4-2.4-.6-5.4 1.8-6.8s5.4-.6 6.8 1.8c2.5 4.2 5.3 6.7 8.5 7.3 4.7 1 9.1-2.1 9.1-2.1 2.2-1.6 5.4-1.2 7 1.1 1.6 2.2 1.2 5.4-1.1 7-.7.3-6 4.1-13.1 4.1z"/><path d="m200.1 298.3c-1.3 0-2.6-.1-3.9-.4-6.1-1.2-11.2-5.3-15.1-12-1.4-2.4-.6-5.4 1.8-6.8s5.4-.6 6.8 1.8c2.5 4.2 5.3 6.7 8.5 7.3 4.7 1 9.1-2.1 9.1-2.1 2.2-1.6 5.4-1.2 7 1.1 1.6 2.2 1.2 5.4-1.1 7-.7.3-6 4.1-13.1 4.1z"/><path d="m100.2 307.1c-.3 0-.5 0-.8-.1-1-.1-9.8-1.7-14.8-9.3-3.4-5.2-4.1-11.6-2.2-19.2.7-2.7 3.4-4.3 6.1-3.6s4.3 3.4 3.6 6.1c-1.2 4.7-.9 8.5.9 11.2 2.6 4 7.9 4.9 8 5 2.7.4 4.6 3 4.2 5.7-.4 2.5-2.5 4.2-5 4.2z"/><path d="m151.3 271c-.3 0-.5 0-.8-.1-1-.1-9.8-1.7-14.8-9.3-3.4-5.2-4.1-11.6-2.2-19.2.7-2.7 3.4-4.3 6.1-3.6s4.3 3.4 3.6 6.1c-1.2 4.7-.9 8.4.8 11.1 2.6 4.1 8 5 8 5 2.7.5 4.6 3 4.1 5.7-.3 2.5-2.4 4.3-4.8 4.3z"/><path d="m372.2 182.4c-1.1 0-2.2-.4-3.1-1.1-.8-.6-7.6-6.3-8.2-15.5-.4-6.2 2.2-12.1 7.7-17.7 1.9-2 5.1-2 7.1-.1s2 5.1.1 7.1c-3.4 3.5-5 6.9-4.9 10.1.3 4.8 4.4 8.2 4.4 8.3 2.2 1.7 2.5 4.9.8 7-1 1.3-2.5 1.9-3.9 1.9z"/><path d="m204.2 346.7c-1.1 0-2.2-.4-3.1-1.1-.8-.6-7.6-6.4-8.2-15.5-.4-6.2 2.2-12.1 7.7-17.7 1.9-2 5.1-2 7.1-.1s2 5.1.1 7.1c-3.4 3.4-5 6.8-4.9 10 .2 4.8 4.4 8.3 4.5 8.4 2.1 1.8 2.4 4.9.7 7-1 1.3-2.5 1.9-3.9 1.9z"/><path d="m188.8 218.2c-2.4 0-4.5-1.7-4.9-4.2-.2-1-1.4-9.8 4.3-17 3.9-4.8 9.8-7.5 17.6-8 2.8-.2 5.1 1.9 5.3 4.7s-1.9 5.1-4.7 5.3c-4.8.3-8.3 1.7-10.3 4.2-3 3.8-2.3 9.1-2.3 9.2.4 2.7-1.5 5.3-4.2 5.7-.3.1-.5.1-.8.1z"/><path d="m257.3 232.8c-2.4 0-4.5-1.7-4.9-4.2-.2-1-1.4-9.8 4.3-17 3.9-4.8 9.8-7.5 17.6-8 2.8-.2 5.1 1.9 5.3 4.7s-1.9 5.1-4.7 5.3c-4.9.3-8.4 1.7-10.4 4.3-3 3.7-2.2 9.1-2.2 9.1.4 2.7-1.4 5.3-4.1 5.7-.4.1-.7.1-.9.1z"/><path d="m171.2 95.9c-.6 0-1.2-.1-1.8-.3-2.6-1-3.9-3.8-2.9-6.4.4-.9 3.7-9.2 12.2-12.6 5.8-2.3 12.2-1.7 19.2 1.8 2.5 1.2 3.5 4.2 2.2 6.7-1.2 2.5-4.2 3.5-6.7 2.2-4.3-2.2-8-2.7-11.1-1.5-4.5 1.7-6.6 6.8-6.6 6.8-.6 2.1-2.5 3.3-4.5 3.3z"/><path d="m237.7 279.8c-.8 0-1.5-.2-2.2-.5l-53.9-27.1c-1.2-.6-2.1-1.6-2.5-2.9s-.3-2.6.3-3.8c8.7-17.3 29.9-24.4 47.2-15.7 8.4 4.2 14.6 11.5 17.6 20.4s2.3 18.5-2 26.9c-.9 1.6-2.7 2.7-4.5 2.7zm-46.8-34.1 44.1 22.2c1.3-4.7 1.2-9.8-.4-14.5-2.1-6.4-6.6-11.6-12.6-14.6-10.8-5.6-23.8-2.4-31.1 6.9z"/><path d="m133.8 348.6c-1.6 0-3.2-.8-4.2-2.3-7.3-11.1-4.2-26.1 6.9-33.4 11.1-7.3 26.1-4.2 33.4 6.9.7 1.1 1 2.5.7 3.8s-1 2.4-2.1 3.2l-32 21c-.8.6-1.7.8-2.7.8zm8.2-27.3c-5 3.3-7.3 9.3-6 14.9l22.1-14.5c-4.6-3.4-11-3.7-16.1-.4z"/><path d="m120.7 149c-8.8 0-17.4-4.9-21.6-13.3-1.2-2.5-.2-5.5 2.2-6.7l34.2-17.2c1.2-.6 2.6-.7 3.8-.3 1.3.4 2.3 1.3 2.9 2.5 6 11.9 1.2 26.4-10.7 32.4-3.4 1.8-7.1 2.6-10.8 2.6zm-9.6-13.7c4.2 3.9 10.5 4.9 15.9 2.2 5.4-2.7 8.3-8.4 7.7-14.1z"/><path d="m225.3 446.7c-59 0-114.5-23-156.3-64.7s-64.7-97.2-64.7-156.3 22.9-114.5 64.7-156.2c41.7-41.7 97.2-64.7 156.3-64.7s114.5 23 156.3 64.7 64.7 97.2 64.7 156.3-23 114.5-64.7 156.3-97.3 64.6-156.3 64.6zm0-432c-116.3 0-211 94.7-211 211s94.7 211 211 211 211-94.7 211-211-94.7-211-211-211z"/><path d="m316.9 339.2c-.1 0-.3 0-.3 0s0 0-.1 0c-2.4 0-24.8-.4-37.2-16.2-8.2-10.4-10-24.7-5.5-42.5 14.3-56 36.5-54 39-53.5.3.1.6.1.9.3 1.4.5 34.6 13.5 39.9 61.9 1.8 16.8-1.4 29.8-9.7 38.7-10.1 10.7-24.1 11.3-27 11.3zm-.3-10h.2c.1 0 12 .2 19.9-8.3 6.1-6.6 8.5-17 7-30.7-4.2-38.7-28.1-51.2-32.7-53.3-2.7.3-16.7 3.8-27.4 46.1-3.7 14.7-2.5 26.1 3.6 33.9 9.8 12.4 29.2 12.3 29.4 12.3z"/><path d="m323.3 243.8c-2.8 0-5-2.2-5-5v-57.1c0-2 1.2-3.8 3.1-4.6s4-.4 5.4 1c1.8 1.8 4.4 2.6 6.9 2.3 3.7-.5 6.7-3.5 7.1-7.2.3-2.4-.5-4.7-2-6.5-1.6-1.8-3.8-2.8-6.2-2.8-2.8 0-5.8 3-7.4 6-2.4 4.5-7 7.3-11.9 7.3h-.6c-5.3 0-10-3.2-12.1-8.2-1.3-3.1-4.3-5.1-7.6-5.1-2.4 0-4.6 1-6.2 2.8s-2.3 4.1-2 6.5c.4 3.7 3.4 6.7 7.1 7.2 2.6.3 5.1-.5 6.9-2.3 1.4-1.4 3.6-1.8 5.4-1 1.9.8 3.1 2.6 3.1 4.6v53.6c0 2.8-2.2 5-5 5s-5-2.2-5-5v-45.3c-2.2.5-4.4.6-6.7.3-8.2-1.1-14.8-7.8-15.7-16-.6-5.2 1.1-10.4 4.5-14.3 3.5-3.9 8.4-6.1 13.6-6.1 7.4 0 14 4.4 16.8 11.2.6 1.3 1.7 2.1 2.9 2.1h.6c1.2 0 2.4-.8 3.1-2 2.8-5.2 8.7-11.3 16.2-11.3 5.2 0 10.2 2.2 13.6 6.1 3.5 3.9 5.1 9.1 4.5 14.3-.9 8.2-7.5 14.9-15.7 16-2.3.3-4.6.2-6.7-.3v48.8c0 2.8-2.2 5-5 5z"/><path d="m104.5 247.6c-2.6 0-5.2-.3-7.7-.9-15.2-3.5-22.8-16.5-23.6-18-1-1.7-12.1-21.6-4.6-40.4 4.9-12.3 16.4-21 34.1-26 55.6-15.6 65 4.6 65.9 7 .1.3.2.6.3.9.2 1.5 5.6 36.8-33.7 65.5-10.7 7.9-21 11.9-30.7 11.9zm34.4-81.2c-7.9 0-18.7 1.4-33.4 5.6-14.6 4.1-23.8 10.9-27.5 20.1-5.9 14.8 3.9 31.5 4 31.7 0 .1.1.1.1.2s5.8 10.5 17.1 13c8.8 2 18.9-1.1 30.1-9.3 31.5-23 30.3-49.9 29.8-55-1-1.4-5.6-6.3-20.2-6.3z"/><path d="m163.6 189.4c-1.7 0-3.4-.9-4.3-2.5-1.4-2.4-.6-5.4 1.8-6.8l49.4-28.5c1.7-1 3.9-.9 5.5.3s2.3 3.3 1.8 5.2c-.6 2.5-.1 5.1 1.5 7.1 2.3 3 6.4 4 9.8 2.5 2.2-1 3.9-2.8 4.6-5s.5-4.7-.7-6.7c-1.4-2.4-5.7-3.5-9-3.4-5 .2-9.6-2.3-12.1-6.6l-.4-.6c-2.6-4.6-2.2-10.3 1.1-14.6 2-2.7 2.2-6.3.6-9.1-1.2-2-3.2-3.5-5.5-4s-4.7 0-6.7 1.5c-3 2.2-4.1 6.3-2.7 9.7 1 2.4 3 4.2 5.4 4.9 1.9.5 3.4 2.2 3.6 4.2.3 2-.7 3.9-2.5 5l-46.4 26.8c-2.4 1.4-5.4.6-6.8-1.8s-.6-5.4 1.8-6.8l39.3-22.7c-1.5-1.6-2.8-3.5-3.7-5.6-3.2-7.6-.6-16.7 6-21.6 4.2-3.1 9.5-4.3 14.6-3.2s9.5 4.3 12.1 8.8c3.7 6.4 3.2 14.3-1.2 20.2-.9 1.1-1 2.5-.4 3.6l.4.6c.6 1 1.7 1.6 3 1.6 6-.2 14.3 1.8 18.1 8.4 2.6 4.5 3.2 9.9 1.5 14.9-1.6 4.9-5.3 9-10.1 11.1-7.6 3.3-16.7.9-21.7-5.6-1.4-1.8-2.4-3.9-3.1-6l-42.2 24.4c-.7.1-1.6.3-2.4.3z"/></svg>