<?xml version="1.0" encoding="UTF-8" standalone="no"?>
<!-- Created with Inkscape (http://www.inkscape.org/) -->

<svg
   version="1.1"
   id="svg327"
   xml:space="preserve"
   width="682.66669"
   height="682.66669"
   viewBox="0 0 682.66669 682.66669"
   xmlns="http://www.w3.org/2000/svg"
   xmlns:svg="http://www.w3.org/2000/svg"><defs
     id="defs331"><clipPath
       clipPathUnits="userSpaceOnUse"
       id="clipPath341"><path
         d="M 0,512 H 512 V 0 H 0 Z"
         id="path339" /></clipPath></defs><g
     id="g333"
     transform="matrix(1.3333333,0,0,-1.3333333,0,682.66667)"><g
       id="g335"><g
         id="g337"
         clip-path="url(#clipPath341)"><g
           id="g343"
           transform="translate(470.6953,341.6304)"><path
             d="m 0,0 c 0.755,-5.112 1.771,-10.089 3.3,-14.797 7.55,-23.254 30.649,-45.062 30.649,-70.833 0,-25.771 -23.098,-47.579 -30.649,-70.833 -7.825,-24.101 -2.227,-55.268 -16.826,-75.329 -14.745,-20.262 -46.217,-24.5 -66.478,-39.245 -20.061,-14.6 -33.736,-43.305 -57.838,-51.13 -23.254,-7.551 -51.082,7.387 -76.853,7.387 -25.772,0 -53.6,-14.938 -76.854,-7.387 -24.101,7.825 -37.776,36.53 -57.837,51.13 -20.261,14.745 -51.733,18.983 -66.478,39.244 -14.6,20.061 -9,51.228 -16.826,75.329 -7.55,23.255 -30.65,45.062 -30.65,70.834 0,25.771 23.099,47.579 30.65,70.833 7.825,24.101 2.226,55.268 16.826,75.329 14.745,20.261 46.217,24.499 66.477,39.244 20.062,14.6 33.737,43.305 57.838,51.13 23.254,7.551 51.082,-7.387 76.854,-7.387 25.771,0 53.599,14.938 76.853,7.388 24.102,-7.826 37.777,-36.531 57.837,-51.131 20.262,-14.745 51.734,-18.983 66.479,-39.244 5.408,-7.43 8.044,-16.385 9.618,-25.939"
             style="fill:none;stroke:#000000;stroke-width:15;stroke-linecap:round;stroke-linejoin:round;stroke-miterlimit:10;stroke-dasharray:none;stroke-opacity:1"
             id="path345" /></g><g
           id="g347"
           transform="translate(113.6406,122.6616)"><path
             d="m 0,0 c -32.682,34.877 -52.692,81.771 -52.692,133.338 0,107.724 87.327,195.052 195.051,195.052 107.725,0 195.052,-87.328 195.052,-195.052 0,-107.724 -87.327,-195.051 -195.052,-195.051 -43.652,0 -83.956,14.339 -116.456,38.566"
             style="fill:none;stroke:#000000;stroke-width:15;stroke-linecap:round;stroke-linejoin:round;stroke-miterlimit:10;stroke-dasharray:none;stroke-opacity:1"
             id="path349" /></g><g
           id="g351"
           transform="translate(329.6377,283.4355)"><path
             d="m 0,0 c 7.105,18.598 44.759,1.259 54.418,-6.285 8.215,-6.416 5.842,-19.914 -4.1,-23.044 -0.096,-0.03 -0.193,-0.06 -0.29,-0.09 -44.143,-13.435 -94.527,1.756 -98.634,52.361 -1.332,16.399 0.379,32.786 0.879,49.175"
             style="fill:none;stroke:#000000;stroke-width:15;stroke-linecap:round;stroke-linejoin:round;stroke-miterlimit:10;stroke-dasharray:none;stroke-opacity:1"
             id="path353" /></g><g
           id="g355"
           transform="translate(280.5342,319.1948)"><path
             d="m 0,0 c -0.38,-29.325 -10.612,-60.948 -42.683,-66.675 -10.714,-1.907 -22.557,-2.183 -32.604,2.576"
             style="fill:none;stroke:#000000;stroke-width:15;stroke-linecap:round;stroke-linejoin:round;stroke-miterlimit:10;stroke-dasharray:none;stroke-opacity:1"
             id="path357" /></g><g
           id="g359"
           transform="translate(187.0693,360.3325)"><path
             d="m 0,0 v -71.752 c 0,-17.436 -14.135,-31.571 -31.57,-31.571 h -0.957 c -17.436,0 -31.571,14.135 -31.571,31.572 0,9.561 3.598,19.196 12.765,23.453"
             style="fill:none;stroke:#000000;stroke-width:15;stroke-linecap:round;stroke-linejoin:round;stroke-miterlimit:10;stroke-dasharray:none;stroke-opacity:1"
             id="path361" /></g><g
           id="g363"
           transform="translate(218.3115,341.7578)"><path
             d="M 0,0 C 0,0 25.524,-9.552 24.552,-37.635"
             style="fill:none;stroke:#000000;stroke-width:15;stroke-linecap:round;stroke-linejoin:round;stroke-miterlimit:10;stroke-dasharray:none;stroke-opacity:1"
             id="path365" /></g><g
           id="g367"
           transform="translate(185.4316,166.77)"><path
             d="m 0,0 20.576,54.023 c 0.42,1.028 1.875,1.03 2.298,0.003 L 43.263,0"
             style="fill:none;stroke:#000000;stroke-width:15;stroke-linecap:round;stroke-linejoin:round;stroke-miterlimit:10;stroke-dasharray:none;stroke-opacity:1"
             id="path369" /></g><g
           id="g371"
           transform="translate(191.8486,180.2246)"><path
             d="M 0,0 H 30.532"
             style="fill:none;stroke:#000000;stroke-width:15;stroke-linecap:round;stroke-linejoin:round;stroke-miterlimit:10;stroke-dasharray:none;stroke-opacity:1"
             id="path373" /></g><g
           id="g375"
           transform="translate(301.5137,166.77)"><path
             d="m 0,0 20.576,54.023 c 0.42,1.028 1.875,1.03 2.298,0.003 L 43.263,0"
             style="fill:none;stroke:#000000;stroke-width:15;stroke-linecap:round;stroke-linejoin:round;stroke-miterlimit:10;stroke-dasharray:none;stroke-opacity:1"
             id="path377" /></g><g
           id="g379"
           transform="translate(307.9307,180.2246)"><path
             d="M 0,0 H 30.532"
             style="fill:none;stroke:#000000;stroke-width:15;stroke-linecap:round;stroke-linejoin:round;stroke-miterlimit:10;stroke-dasharray:none;stroke-opacity:1"
             id="path381" /></g><g
           id="g383"
           transform="translate(255.2715,221.5649)"><path
             d="m 0,0 v -54.749 c 0.605,-0.104 19.187,0 19.187,0"
             style="fill:none;stroke:#000000;stroke-width:15;stroke-linecap:round;stroke-linejoin:round;stroke-miterlimit:10;stroke-dasharray:none;stroke-opacity:1"
             id="path385" /></g><g
           id="g387"
           transform="translate(371.9639,221.5649)"><path
             d="m 0,0 v -54.749 c 0.605,-0.104 19.187,0 19.187,0"
             style="fill:none;stroke:#000000;stroke-width:15;stroke-linecap:round;stroke-linejoin:round;stroke-miterlimit:10;stroke-dasharray:none;stroke-opacity:1"
             id="path389" /></g><g
           id="g391"
           transform="translate(120.8486,221.5649)"><path
             d="M 0,0 V -54.795"
             style="fill:none;stroke:#000000;stroke-width:15;stroke-linecap:round;stroke-linejoin:round;stroke-miterlimit:10;stroke-dasharray:none;stroke-opacity:1"
             id="path393" /></g><g
           id="g395"
           transform="translate(158.7676,221.5649)"><path
             d="M 0,0 V -54.795"
             style="fill:none;stroke:#000000;stroke-width:15;stroke-linecap:round;stroke-linejoin:round;stroke-miterlimit:10;stroke-dasharray:none;stroke-opacity:1"
             id="path397" /></g><g
           id="g399"
           transform="translate(120.8486,195.1069)"><path
             d="M 0,0 H 37.919"
             style="fill:none;stroke:#000000;stroke-width:15;stroke-linecap:round;stroke-linejoin:round;stroke-miterlimit:10;stroke-dasharray:none;stroke-opacity:1"
             id="path401" /></g></g></g></g></svg>
