<?xml version="1.0" encoding="UTF-8"?>
<svg id="Layer_2" data-name="Layer 2" xmlns="http://www.w3.org/2000/svg" viewBox="0 0 786.25 480.63">
  <defs>
    <style>
      .cls-1 {
        fill: #f57c00;
      }

      .cls-2 {
        fill: #6a110e;
      }
    </style>
  </defs>
  <g id="Layer_1-2" data-name="Layer 1">
    <g>
      <path class="cls-1" d="M466.91,.98c9.86-3.31,21.79,2.06,25.1,12.08,2.66,7.13,.7,15.79-5.02,20.88-5.65,5.46-14.59,6.98-21.75,3.78-7.22-2.82-12.2-10.48-11.82-18.22-.35-8.3,5.65-16.11,13.49-18.52Z"/>
      <path class="cls-2" d="M50.63,63.74c7.64-16.23,24.69-27.99,42.83-27.86,109.1-.04,218.2,.08,327.3-.06-2.32,2.04-5.53,2.38-8.25,3.65-12.12,5.05-23.86,11.06-35,18.02-2.21,1.24-4.26,3.29-6.96,3.11-85.7-.02-171.4,.02-257.1-.01-8.12-.15-15.5,7.75-14.26,15.9,.64,7.52,7.98,13.04,15.3,12.88,33.33-.96,66.68-.26,100.02-.72,26.34-.37,52.68,.1,79.01-.34,15.22-.1,30.45-.32,45.67-.18-1.37,2.55-3.24,4.77-4.95,7.08-9.24,12.52-17.28,25.9-24.22,39.82-67.5,.13-135,.01-202.5,.05-8.02-.14-16.19,.6-24.05-1.41-12.1-3.08-23.1-10.73-29.77-21.35-9.23-14.24-10.64-33.32-3.07-48.58Z"/>
      <path class="cls-2" d="M388.51,74.48c33.24-21.65,74.83-29.38,113.78-22.65,35.23,6.39,68.17,25.24,91.17,52.71,12.85,15.3,22.22,33.27,29.15,51.94-99.7,.03-199.4,.02-299.1,.01,7.87-18.63,17.7-36.62,30.88-52.06,10.01-11.4,21.31-21.76,34.12-29.95Z"/>
      <path class="cls-2" d="M669.75,176.71c13.32-3.32,24.15-12.86,31.54-24.14-2.33,15.7-8.09,31.12-18.31,43.41-12.1,15.05-31.15,24.13-50.47,23.97-203.32-.02-406.65,.03-609.97-.02-6.45,.19-13.04-2.23-17.34-7.14-4.3-4.55-5.9-11.16-4.93-17.26,1.29-9.6,10.46-17.53,20.2-17.06,33.58,.14,67.16-.13,100.73,.13,2.47,11.72,13.08,21.56,25.25,21.88,22.04,.01,44.08,.07,66.12-.03,11.81-.87,21.64-10.54,24.19-21.88,135.92-.16,271.84-.02,407.76-.07,8.43-.13,17.04,.72,25.23-1.79Z"/>
      <path class="cls-2" d="M359.53,246.42c10.61-1.53,21.37-.88,32.05-.9,13.98,1.21,28.64,2.78,40.89,10.18-.02,.38-.05,1.13-.06,1.51-18.28,.99-37.05,2.6-53.94,10.21-12.39,5.7-24.08,14.76-29.39,27.69-2.23,5.84-3.56,13.05,.3,18.53,4.18,5.63,11.42,7.69,18.06,8.59,19.24,1.79,38.64-3.89,54.99-13.91,20.06-12.26,36.52-29.46,51.38-47.48,3.77-3.93,6.87-8.7,11.63-11.52,8.4-4.52,19.97,1.28,21.67,10.6,1.04,3.94-1.59,7.48-3.66,10.56-21.04,30.58-46.22,58.94-77.21,79.72-8.99,5.93-18.4,11.23-28.15,15.81-3.21,1.53-6.68,2.5-9.73,4.35,39.63,.4,80.24-7.19,114.82-27.27,31.26-18.64,57.6-44.91,77.92-74.99,3.93-5.37,6.99-11.56,12.24-15.83,2.4-2.16,5.9-2.25,8.91-1.6,6.3,2.66,9.4,10.83,6.46,17.02-16.08,34.46-38.95,66.48-69.61,89.41-29.87,22.27-66.78,33.7-103.71,36.15-17.96,.82-35.96,.04-53.85-1.57-18.47-1.03-37.02-3.36-55.52-1.51-17.82,1.21-35.61,5.77-51.19,14.64-12.63,7.13-24.16,16.34-33.59,27.38-8.34,9.15-14.27,20.1-20.12,30.92-2.25,4.34-6.22,8.6-11.51,8.4-60.04-.03-120.08,.01-180.12-.02-3.53,.01-5.77-3.77-4.95-7.01,1.36-10.78,.7-22.54,7.05-31.95,5.22-7.85,14.59-12.51,23.97-12.41,17.01-.18,34.02,.05,51.03-.11,14.81-.22,29.49-4.64,42.11-12.37,17.13-10.31,31.18-24.81,44.4-39.62,22.37-25.51,43.48-52.33,68.93-74.93,27.09-24.4,60.83-42.81,97.5-46.67Z"/>
      <path class="cls-2" d="M538.87,249.86c7.61-4,18.27,.58,20.73,8.78,1.34,4.5-.89,8.97-3.33,12.64-10.37,15.3-22.99,28.96-36.7,41.3-19.2,16.93-41.81,31.38-67.33,36.01,1.84-2.01,4.24-3.36,6.42-4.96,13.3-9.48,25.51-20.42,37.07-31.93,14-14.31,25.08-31.23,33.94-49.13,2.62-4.48,4.41-10.04,9.2-12.71Z"/>
      <path class="cls-1" d="M648.88,248.97c6.2-1.57,13.06,.04,17.89,4.25,5.69,4.78,8.35,13.15,5.79,20.24-2.56,8.35-11.32,14.22-20.04,13.33-9.96-.05-18.83-9.29-18.11-19.3-.45-8.62,6.27-16.51,14.47-18.52Z"/>
      <path class="cls-2" d="M67.23,271.47c-2-9.18,5.86-18.94,15.22-19,60.76,.08,121.52-.01,182.28,.04-7.91,6.13-15.7,12.41-23.16,19.08-5.2,4.22-9.63,9.37-15.15,13.17-47.62,.25-95.26,.03-142.88,.11-7.8,.37-15.21-5.66-16.31-13.4Z"/>
      <path class="cls-2" d="M16.46,329.53c-.62-8.82,7.14-17.23,16.02-17.11,54.18,.05,108.36-.03,162.54,.08-10.62,9.85-21.08,19.89-30.87,30.58-1.05,.99-1.95,2.59-3.63,2.4-42.02,.06-84.04-.03-126.05,.04-8.99,.6-17.81-6.86-18.01-15.99Z"/>
    </g>
    <g>
      <path class="cls-1" d="M669.98,412.45c11.92-2.73,25.7-.04,34.34,9.03-2.88,2.72-5.58,5.64-8.45,8.36-1.01,1.1-2.26-.18-3.14-.76-8.14-6.65-21.25-5.88-28.5,1.76-7.25,7.47-7.8,20.17-1.77,28.52,3.76,5.11,10.06,8.07,16.36,8.06,4.07-.02,8.78,.07,12.02-2.8,.73-3.36,.07-6.88,.35-10.3-3.73,.06-7.45,0-11.17,.04-1.06,.04-2.09-.13-3.08-.46,0-3.82-.18-7.64,.05-11.45,.17-.16,.5-.5,.67-.67,8.65-.22,17.32-.04,25.98-.06,1.14-.27,2.05,.76,1.84,1.88,.05,8.8,.12,17.61-.03,26.41-7.71,8.97-20.47,11.84-31.81,10.15-6.36-.83-12.54-3.28-17.55-7.3-6.75-5.1-11.12-13.02-12.36-21.33-.6-5.94-.45-12.11,1.76-17.72,3.77-10.74,13.44-18.95,24.5-21.36Z"/>
      <path class="cls-1" d="M746.26,411.81c10.4-1.44,21.72,1.44,29.39,8.85,13.38,12.32,14.19,35.6,1.83,48.89-6.51,7.28-16.35,11.06-26.02,11.03-10.5,.12-21.17-4.44-27.74-12.75-9.07-11.05-9.86-27.82-2.57-39.99,5.22-8.94,14.91-14.8,25.11-16.03Zm2.33,13.15c-6.73,1-12.67,5.7-15.38,11.9-2.16,4.55-2.36,9.84-1.3,14.7,1.58,6.87,6.85,12.84,13.62,14.94,8.1,2.62,17.58-.84,22.19-7.98,6.09-8.75,4.64-21.9-3.42-28.96-4.22-3.79-10.13-5.42-15.71-4.6Z"/>
      <path class="cls-1" d="M282.25,413.87c.24-1.33,1.71-1.03,2.68-1.06,3.82,.07,7.65-.07,11.48,.05,1.21,.1,1.85,1.29,2.42,2.22,4.55,7.96,9.34,15.77,13.92,23.72,4.88-8.23,9.88-16.39,14.73-24.64,1-2,3.56-1.16,5.34-1.35,3.46,.22,7.02-.5,10.4,.42-.01,.92,.21,1.95-.38,2.76-7.37,12.08-14.65,24.21-21.96,36.31-.38,.67-.91,1.33-.79,2.16-.02,7.48-.02,14.97,0,22.45,.1,.88-.25,1.69-.66,2.45-4.22-.08-8.44,.04-12.66-.04-.91-.47-.81-1.6-.87-2.44,0-7.26,0-14.52,.02-21.78,.09-.97-.4-1.83-.87-2.63-6.76-11.54-13.76-22.94-20.69-34.38-.75-1.38-1.98-2.61-2.11-4.23Z"/>
      <path class="cls-1" d="M352.2,414.48c.23-1.67,2.31-1.66,3.61-1.61,3.42,.19,6.93-.42,10.29,.45,.25,.99,.52,1.99,.49,3.02,.04,12.3-.05,24.61,.04,36.91-.06,5.15,2.4,10.75,7.42,12.79,5.36,2.18,12.42,1.75,16.52-2.71,3.14-3.31,3.67-8.1,3.69-12.46,0-11.5-.06-23-.02-34.5,.1-1.22-.03-3.19,1.6-3.36,3.21-.27,6.45-.07,9.67-.1,1.12,0,2.93,.13,3.03,1.59,.02,13.54,0,27.08,.01,40.62-.41,6.16-2.16,12.52-6.5,17.11-5.17,5.45-12.8,7.94-20.17,8.33-7.8,.24-16.17-1.55-22.01-7.03-5.14-4.62-7.36-11.66-7.69-18.4,.04-13.55-.01-27.1,.02-40.64Z"/>
      <path class="cls-1" d="M422.47,415.07c-.13-1.08,.75-2.21,1.88-2.19,4-.05,8.01-.07,12.02-.01,1.41,.03,2.12,1.39,2.79,2.44,6,10.4,12.22,20.67,18.19,31.08,6.17-10.78,12.54-21.46,18.83-32.17,1.14-2.1,3.76-1.3,5.68-1.41,3.24,.22,6.6-.47,9.77,.45,.54,6.05,.12,12.14,.25,18.21,.01,15.14-.04,30.28,.03,45.43,.12,.94-.45,1.71-.91,2.48-4.21-.08-8.42,0-12.62-.05-.19-.3-.57-.91-.76-1.22-.02-13.65,.02-27.3-.02-40.95-5.88,9.46-11.7,18.98-17.13,28.71-.25,.19-.76,.57-1.01,.76-1.44-.01-2.87,0-4.29,0-.27-.18-.82-.55-1.09-.73-5.25-9.6-11.26-18.77-16.74-28.23-.19-.14-.58-.42-.77-.56,.19,1.54,.27,3.1,.25,4.66-.03,11.72-.02,23.45-.02,35.17,.07,.93-.49,1.68-.93,2.45-4.05-.07-8.1-.02-12.15-.04-.42-.46-.84-.92-1.25-1.38v-62.9Z"/>
      <path class="cls-1" d="M506.66,413.81c.59-.34,1.1-1.02,1.85-.98,3.44-.06,6.88,.02,10.31-.02,1.24-.01,2.87-.04,3.47,1.33,6.36,10.74,12.74,21.47,18.99,32.28,6.55-11,13.02-22.06,19.55-33.08,2.07-.81,4.31-.49,6.48-.53,2.52,.07,5.06-.16,7.57,.12,1.27,.25,1.33,1.73,1.36,2.77,0,19.4,0,38.79,.01,58.19-.05,1.87,.41,3.98-.97,5.5-4.28-.11-8.56,.04-12.83-.07-.4-.96-.73-1.96-.63-3.01,.1-13.12-.12-26.24,.12-39.35-4.54,7.45-9.09,14.89-13.49,22.42-1.54,2.34-2.61,5.01-4.39,7.17-1.7,.15-3.42,.15-5.11,0-1.23-.85-1.74-2.34-2.5-3.56-5.16-8.74-10.26-17.52-15.71-26.07,.36,12.51,.09,25.04,.19,37.55-.04,1.67,.25,3.52-.88,4.93-3.87-.1-7.74-.01-11.62-.04-.98,.17-1.66-.94-1.72-1.76-.06-21.26,.05-42.52-.05-63.78Z"/>
      <path class="cls-1" d="M591.06,415.12c-.18-2.67,2.92-2.38,4.73-2.31,3.22,.24,6.59-.56,9.69,.54,.28,18.75,.03,37.51,.13,56.27-.1,2.99,.22,6-.16,8.98-.18,.18-.55,.54-.72,.71-4.24,.13-8.47-.05-12.7,.08-1.51-1.69-.91-4.05-.99-6.1,.02-19.39-.03-38.78,.03-58.17Z"/>
    </g>
  </g>
</svg>